<svg xmlns="http://www.w3.org/2000/svg" version="1.1" viewBox="0 0 432 276.7">
  <defs>
    <style>
      .st0, .st1 {
        stroke-miterlimit: 10;
      }

      .st0, .st1, .st2 {
        fill: none;
      }

      .st3, .st4 {
        font-family: Geneva, Verdana, sans-serif;
        font-size: 12px;
      }

      .st1, .st2 {
        stroke: #000;
      }
    </style>
  </defs>

  <rect id="frame" class="st0" x="8.9" y="10.2" width="414.2" height="256.2"/>
  <circle id="ellipse" class="st1" cx="216" cy="137.7" r="44.5"/>
  <g id="arrows">
    <g>
      <line class="st2" x1="251.7" y1="97.6" x2="275.1" y2="74.2"/>
      <path d="M247.4,101.9c2.8-1.3,6.5-2.5,9.4-2.7l-4.6-2.1-2.1-4.6c-.2,2.9-1.4,6.7-2.7,9.4h0Z"/>
    </g>
    <g>
      <line class="st2" x1="165.9" y1="155.3" x2="134.6" y2="166.1"/>
      <path d="M171.6,153.3c-3,0-6.9-.6-9.6-1.7l3.2,3.9v5.1c1.4-2.5,4.1-5.4,6.5-7.3h0Z"/>
    </g>
    <g>
      <line class="st2" x1="267.8" y1="155.6" x2="299.6" y2="165.1"/>
      <path d="M262,153.9c2.4,1.8,5.3,4.5,6.8,7l-.3-5,3-4.1c-2.6,1.2-6.5,1.9-9.5,2.1Z"/>
    </g>
    <g>
      <line class="st2" x1="181.1" y1="176.9" x2="157.7" y2="200.4"/>
      <path d="M185.4,172.6c-2.8,1.3-6.5,2.5-9.4,2.7l4.6,2.1,2.1,4.6c.2-2.9,1.4-6.7,2.7-9.4Z"/>
    </g>
    <g>
      <line class="st2" x1="267.8" y1="123.2" x2="299.5" y2="113.5"/>
      <path d="M262,124.9c3,.2,6.9.9,9.6,2l-3-4,.3-5.1c-1.5,2.5-4.4,5.2-6.8,7h0Z"/>
    </g>
    <g>
      <line class="st2" x1="163.3" y1="126.4" x2="131.9" y2="115.9"/>
      <path d="M169,128.4c-2.4-1.9-5.1-4.7-6.6-7.2v5.1c.1,0-3,4-3,4,2.7-1.1,6.6-1.7,9.6-1.8Z"/>
    </g>
    <g>
      <line class="st2" x1="179.5" y1="99.7" x2="156.1" y2="76.3"/>
      <path d="M183.8,104c-1.3-2.8-2.5-6.5-2.7-9.4l-2.1,4.6-4.6,2.1c2.9.2,6.7,1.4,9.4,2.7Z"/>
    </g>
    <g>
      <line class="st2" x1="251.2" y1="178.4" x2="274.7" y2="201.8"/>
      <path d="M247,174.1c1.3,2.8,2.5,6.5,2.7,9.4l2.1-4.6,4.6-2.1c-2.9-.2-6.7-1.4-9.4-2.7h0Z"/>
    </g>
    <g>
      <line class="st2" x1="216" y1="84.6" x2="216" y2="50.8"/>
      <path d="M216,90.6c1.1-2.8,2.9-6.4,4.8-8.5l-4.8,1.7-4.8-1.7c1.9,2.2,3.7,5.7,4.8,8.5Z"/>
    </g>
    <g>
      <line class="st2" x1="216" y1="192.5" x2="216" y2="225.7"/>
      <path d="M216,186.5c-1.1,2.8-2.9,6.4-4.8,8.5l4.8-1.7,4.8,1.7c-1.9-2.2-3.7-5.7-4.8-8.5Z"/>
    </g>
  </g>

  <text class="st4" transform="translate(101 70)"><tspan x="0" y="0">Multimídia</tspan></text>
  <text class="st4" transform="translate(70 112)"><tspan x="0" y="0">Interação </tspan><tspan x="-62" y="14">homem-computador</tspan></text>
  <text class="st3" transform="translate(93 174)"><tspan x="0" y="0">Testes</tspan></text>
  <text class="st4" transform="translate(71 211)"><tspan x="0" y="0">Gerenciamento </tspan><tspan x="21" y="14">de Projetos</tspan></text>
  <text class="st4" transform="translate(179 237)"><tspan x="0" y="0">Modelagem e </tspan><tspan x="8" y="14">Simulação</tspan></text>
  <text class="st4" transform="translate(280 208)"><tspan x="0" y="0">Análise de Sistema </tspan><tspan x="0" y="14">e Design</tspan></text>
  <text class="st4" transform="translate(305 157)"><tspan x="0" y="0">Engenharia de </tspan><tspan x="0" y="14">Requisitos</tspan></text>
  <text class="st4" transform="translate(305 107)"><tspan x="0" y="0">Engenharia da </tspan><tspan x="0" y="14">Informação</tspan></text>
  <text class="st4" transform="translate(283 68)"><tspan x="0" y="0">Hipertexto</tspan></text>
  <text class="st4" transform="translate(177 27)"><tspan x="0" y="0">Engenharia de </tspan><tspan x="15" y="14">Software</tspan></text>
  <text class="st4" transform="translate(185 136)"><tspan x="0" y="0">Engenharia </tspan><tspan x="18" y="14">Web</tspan></text>
</svg>
